<svg width="24" height="24" viewBox="0 0 24 24" fill="none" xmlns="http://www.w3.org/2000/svg">
<path d="M15.0782 16.5093C14.7367 16.0753 14.108 16.0004 13.674 16.3419C13.24 16.6834 13.165 17.3121 13.5065 17.7462L15.0782 16.5093ZM16.7109 20.2012L15.9251 20.8196C16.102 21.0444 16.3668 21.1827 16.6525 21.1995C16.9382 21.2162 17.2173 21.1097 17.4193 20.9071L16.7109 20.2012ZM22.8649 15.4425C23.2548 15.0513 23.2537 14.4181 22.8625 14.0283C22.4713 13.6384 21.8381 13.6395 21.4483 14.0307L22.8649 15.4425ZM13.5065 17.7462L15.9251 20.8196L17.4968 19.5828L15.0782 16.5093L13.5065 17.7462ZM21.4483 14.0307L16.0026 19.4953L17.4193 20.9071L22.8649 15.4425L21.4483 14.0307Z" fill="#171717" fill-opacity="0.3"/>
<rect x="2.63281" y="2.49805" width="7.67188" height="7.67578" rx="3" stroke="#171717" stroke-opacity="0.3" stroke-width="2" stroke-linecap="round"/>
<rect x="2.63281" y="13.4961" width="7.67188" height="7.67578" rx="3" stroke="#171717" stroke-opacity="0.3" stroke-width="2" stroke-linecap="round"/>
<rect x="13.6875" y="2.49805" width="7.67188" height="7.67578" rx="3" stroke="#171717" stroke-opacity="0.3" stroke-width="2" stroke-linecap="round"/>
</svg>
