<svg width="24" height="24" viewBox="0 0 24 24" fill="none" xmlns="http://www.w3.org/2000/svg">
<path d="M9 11.5023L11 13.5023L15.5 9.00231M20 12.0023C20 16.9108 14.646 20.4807 12.698 21.6172C12.4766 21.7463 12.3659 21.8109 12.2097 21.8444C12.0884 21.8704 11.9116 21.8704 11.7903 21.8444C11.6341 21.8109 11.5234 21.7463 11.302 21.6172C9.35396 20.4807 4 16.9108 4 12.0023V7.21991C4 6.4204 4 6.02065 4.13076 5.67702C4.24627 5.37345 4.43398 5.10259 4.67766 4.88784C4.9535 4.64475 5.3278 4.50439 6.0764 4.22366L11.4382 2.21299C11.6461 2.13503 11.75 2.09604 11.857 2.08059C11.9518 2.06689 12.0482 2.06689 12.143 2.08059C12.25 2.09604 12.3539 2.13503 12.5618 2.21299L17.9236 4.22366C18.6722 4.50439 19.0465 4.64475 19.3223 4.88784C19.566 5.10259 19.7537 5.37345 19.8692 5.67702C20 6.02065 20 6.4204 20 7.21991V12.0023Z" stroke="#171717" stroke-opacity="0.3" stroke-width="2" stroke-linecap="round" stroke-linejoin="round"/>
</svg>
